<svg width="24" height="24" viewBox="0 0 24 24" fill="none" xmlns="http://www.w3.org/2000/svg">
<path d="M6.75 10.375C6.45163 10.375 6.16548 10.4935 5.9545 10.7045C5.74353 10.9155 5.625 11.2016 5.625 11.5C5.625 11.7984 5.74353 12.0845 5.9545 12.2955C6.16548 12.5065 6.45163 12.625 6.75 12.625V10.375ZM16.5 12.625C16.7984 12.625 17.0845 12.5065 17.2955 12.2955C17.5065 12.0845 17.625 11.7984 17.625 11.5C17.625 11.2016 17.5065 10.9155 17.2955 10.7045C17.0845 10.4935 16.7984 10.375 16.5 10.375V12.625ZM6.75 12.625H16.5V10.375H6.75V12.625Z" fill="url(#paint0_linear_618_666)"/>
<path d="M12 16L16.875 11.5L12 7" stroke="black" stroke-width="2" stroke-linecap="round" stroke-linejoin="round"/>
<defs>
<linearGradient id="paint0_linear_618_666" x1="17.0027" y1="10.2712" x2="16.3964" y2="14.6973" gradientUnits="userSpaceOnUse">
<stop/>
<stop offset="1" stop-color="white"/>
</linearGradient>
</defs>
</svg>
