<svg width="24" height="24" viewBox="0 0 24 24" fill="none" xmlns="http://www.w3.org/2000/svg">
<path d="M12 3.8025C14.67 3.8025 14.9875 3.8125 16.0413 3.86125C18.7512 3.98375 20.0175 5.27 20.1412 7.96C20.1887 9.01375 20.1987 9.33125 20.1987 12.0013C20.1987 14.6713 20.1887 14.9875 20.1412 16.0413C20.0162 18.7288 18.7537 20.0175 16.0413 20.1412C14.9862 20.1887 14.6713 20.1987 12 20.1987C9.33 20.1987 9.0125 20.1887 7.95875 20.1412C5.2425 20.0162 3.98375 18.725 3.86 16.0413C3.81125 14.9862 3.80125 14.6713 3.80125 12C3.80125 9.33 3.8125 9.01375 3.86 7.95875C3.985 5.27 5.2475 3.98375 7.96 3.86C9.0125 3.8125 9.32875 3.8025 12 3.8025ZM12 2C9.28375 2 8.94375 2.0125 7.8775 2.06C4.24625 2.22625 2.2275 4.24125 2.06125 7.87625C2.01125 8.94375 2 9.28375 2 12C2 14.7163 2.0125 15.0562 2.06 16.1237C2.22625 19.755 4.24125 21.7738 7.87625 21.94C8.94375 21.9888 9.28375 22 12 22C14.7163 22 15.0562 21.9875 16.1237 21.94C19.7512 21.7738 21.775 19.7587 21.9388 16.1237C21.9888 15.0562 22 14.7163 22 12C22 9.28375 21.9875 8.94375 21.94 7.8775C21.7775 4.24875 19.7587 2.2275 16.1237 2.06125C15.0562 2.01125 14.7163 2 12 2ZM12 6.865C10.6381 6.865 9.33201 7.40601 8.36901 8.36901C7.40601 9.33201 6.865 10.6381 6.865 12C6.865 13.3619 7.40601 14.668 8.36901 15.631C9.33201 16.594 10.6381 17.135 12 17.135C13.3619 17.135 14.668 16.594 15.631 15.631C16.594 14.668 17.135 13.3619 17.135 12C17.135 10.6381 16.594 9.33201 15.631 8.36901C14.668 7.40601 13.3619 6.865 12 6.865ZM12 15.3337C11.5623 15.3337 11.1289 15.2475 10.7245 15.08C10.3201 14.9125 9.95263 14.667 9.64312 14.3575C9.33362 14.048 9.0881 13.6806 8.92059 13.2762C8.75309 12.8718 8.66687 12.4383 8.66687 12.0006C8.66687 11.5629 8.75309 11.1295 8.92059 10.7251C9.0881 10.3207 9.33362 9.95326 9.64312 9.64375C9.95263 9.33424 10.3201 9.08872 10.7245 8.92122C11.1289 8.75371 11.5623 8.6675 12 8.6675C12.884 8.6675 13.7318 9.01867 14.3569 9.64375C14.982 10.2688 15.3331 11.1166 15.3331 12.0006C15.3331 12.8846 14.982 13.7324 14.3569 14.3575C13.7318 14.9826 12.884 15.3337 12 15.3337ZM17.3375 5.4625C17.1799 5.4625 17.0239 5.49354 16.8783 5.55384C16.7327 5.61415 16.6004 5.70254 16.489 5.81397C16.3775 5.9254 16.2892 6.05769 16.2288 6.20328C16.1685 6.34887 16.1375 6.50491 16.1375 6.6625C16.1375 6.82009 16.1685 6.97613 16.2288 7.12172C16.2892 7.26731 16.3775 7.3996 16.489 7.51103C16.6004 7.62246 16.7327 7.71085 16.8783 7.77116C17.0239 7.83146 17.1799 7.8625 17.3375 7.8625C17.6558 7.8625 17.961 7.73607 18.186 7.51103C18.4111 7.28598 18.5375 6.98076 18.5375 6.6625C18.5375 6.34424 18.4111 6.03902 18.186 5.81397C17.961 5.58893 17.6558 5.4625 17.3375 5.4625Z" fill="black"/>
</svg>
